<?xml version="1.0" encoding="iso-8859-1"?>
<!-- Generator: Adobe Illustrator 19.0.0, SVG Export Plug-In . SVG Version: 6.00 Build 0)  -->
<svg version="1.1" id="Layer_1" xmlns="http://www.w3.org/2000/svg" xmlns:xlink="http://www.w3.org/1999/xlink" x="0px" y="0px"
	 viewBox="0 0 512 512" style="enable-background:new 0 0 512 512;" xml:space="preserve">
<circle style="fill:#FFD15C;" cx="256" cy="256" r="256"/>
<circle style="fill:#F8B64C;" cx="256" cy="256" r="194.133"/>
<path style="fill:#FFD15C;" d="M243.2,366.933c-34.133-3.2-58.667-16-75.733-33.067l25.6-35.2
	c11.733,12.8,29.867,23.467,51.2,27.733v-50.133c-33.067-8.533-69.333-20.267-69.333-64c0-32,25.6-59.733,69.333-65.067v-29.867
	h29.867v30.933c25.6,3.2,48,12.8,66.133,28.8l-25.6,34.133c-11.733-10.667-25.6-17.067-40.533-21.333v44.8
	c33.067,8.533,70.4,21.333,70.4,65.067c0,35.2-23.467,62.933-70.4,68.267v28.8h-29.867v-29.867H243.2z M243.2,226.133v-38.4
	c-13.867,2.133-22.4,9.6-22.4,20.267C221.867,216.533,230.4,221.867,243.2,226.133z M274.133,282.667v42.667
	c16-3.2,24.533-12.8,24.533-22.4C297.6,292.267,288,286.933,274.133,282.667z"/>
<g>
	<rect x="250.667" y="12.8" style="fill:#F8B64C;" width="10.667" height="36.267"/>
	<rect x="250.667" y="462.933" style="fill:#F8B64C;" width="10.667" height="36.267"/>
	
		<rect x="160.993" y="39.313" transform="matrix(0.342 0.9397 -0.9397 0.342 159.8201 -138.9478)" style="fill:#F8B64C;" width="36.267" height="10.667"/>
	
		<rect x="314.746" y="461.992" transform="matrix(0.342 0.9397 -0.9397 0.342 658.1805 -5.3068)" style="fill:#F8B64C;" width="36.267" height="10.667"/>
	
		<rect x="93.398" y="77.77" transform="matrix(0.6428 0.766 -0.766 0.6428 103.4952 -55.7518)" style="fill:#F8B64C;" width="36.266" height="10.666"/>
	
		<rect x="381.625" y="422.743" transform="matrix(0.6428 0.766 -0.766 0.6428 470.7016 -153.3211)" style="fill:#F8B64C;" width="36.266" height="10.666"/>
	
		<rect x="42.904" y="137.643" transform="matrix(0.866 0.5 -0.5 0.866 79.6674 -11.363)" style="fill:#F8B64C;" width="36.266" height="10.666"/>
	
		<rect x="431.981" y="363.125" transform="matrix(0.866 0.5 -0.5 0.866 244.5401 -175.6956)" style="fill:#F8B64C;" width="36.266" height="10.666"/>
	
		<rect x="15.822" y="211.95" transform="matrix(0.9848 0.1737 -0.1737 0.9848 38.2583 -2.5949)" style="fill:#F8B64C;" width="36.267" height="10.667"/>
	
		<rect x="458.906" y="289.166" transform="matrix(0.9848 0.1737 -0.1737 0.9848 58.406 -78.3849)" style="fill:#F8B64C;" width="36.267" height="10.667"/>
	
		<rect x="15.804" y="289.432" transform="matrix(0.9848 -0.1737 0.1737 0.9848 -50.6848 10.3758)" style="fill:#F8B64C;" width="36.267" height="10.667"/>
	
		<rect x="458.825" y="212.153" transform="matrix(0.9848 -0.1737 0.1737 0.9848 -30.5269 86.1537)" style="fill:#F8B64C;" width="36.267" height="10.667"/>
	
		<rect x="42.893" y="363.659" transform="matrix(0.866 -0.5 0.5 0.866 -176.3237 79.9516)" style="fill:#F8B64C;" width="36.266" height="10.666"/>
	
		<rect x="431.875" y="138.176" transform="matrix(0.866 -0.5 0.5 0.866 -11.4638 244.2362)" style="fill:#F8B64C;" width="36.266" height="10.666"/>
	
		<rect x="93.419" y="423.571" transform="matrix(0.6428 -0.766 0.766 0.6428 -288.7043 238.6483)" style="fill:#F8B64C;" width="36.266" height="10.666"/>
	
		<rect x="381.647" y="78.555" transform="matrix(0.6428 -0.766 0.766 0.6428 78.5348 336.2023)" style="fill:#F8B64C;" width="36.266" height="10.666"/>
	
		<rect x="160.998" y="462.052" transform="matrix(0.342 -0.9397 0.9397 0.342 -321.3336 475.869)" style="fill:#F8B64C;" width="36.267" height="10.667"/>
	
		<rect x="314.751" y="39.32" transform="matrix(0.342 -0.9397 0.9397 0.342 177.0769 342.1928)" style="fill:#F8B64C;" width="36.267" height="10.667"/>
</g>
<path style="opacity:0.1;fill:#231F20;enable-background:new    ;" d="M83.2,277.333C83.2,170.667,170.667,83.2,277.333,83.2
	c48,0,91.733,17.067,125.867,46.933C368,88.533,314.667,61.867,256,61.867C149.333,61.867,61.867,149.333,61.867,256
	c0,58.667,26.667,112,68.267,147.2C101.333,369.067,83.2,325.333,83.2,277.333z"/>
</svg>